:FULLY-SPECIFIED
:FORCE-ALL-JOINTS-BE-3DOF
:DEGREES
2242
root -0.718193 13.8226 -16.5776 911.949 -26.8409 168.506
lfemur 11.3748 -1.68024 -15.367
ltibia 31.7116 0 0
lfoot -23.6092 36.7417 0
ltoes -43.589 0 0
rfemur -72.1885 -23.9679 9.12887
rtibia 74.1526 0 0
rfoot -6.94658 14.298 0
rtoes 4.30236 0 0
lowerback 9.58633 1.80735 -13.0431
upperback -3.13475 0.373892 -2.01371
thorax -8.96644 0.767172 5.09949
lowerneck 0.939467 -12.0587 -12.3803
upperneck 5.00118 -16.7795 10.1889
head 3.23541 -8.42945 4.3223
lclavicle -3.67898e-14 -1.06897e-15 0
lhumerus -69.5123 -17.7673 103.893
lradius 102.039 0 0
lwrist 60.5767 0 0
lhand -11.5137 423.204 0
lfingers 7.12502 0 0
lthumb 14.5256 -489.482 0
rclavicle -3.67898e-14 -1.06897e-15 0
rhumerus 49.1412 -10.024 -58.4853
rradius 16.976 0 0
rwrist 34.7778 0 0
rhand -19.6423 -402.628 0
rfingers 7.12502 0 0
rthumb 6.68517 287.498 0
2243
root -0.724231 13.8137 -16.5982 911.87 -26.707 168.572
lfemur 11.4072 -1.55926 -15.3549
ltibia 31.8199 0 0
lfoot -23.6318 36.7729 0
ltoes -43.7109 0 0
rfemur -72.2195 -23.8579 9.1626
rtibia 74.1535 0 0
rfoot -6.90307 14.3325 0
rtoes 4.32141 0 0
lowerback 9.47887 1.82956 -13.0998
upperback -3.10805 0.413752 -2.01503
thorax -8.88271 0.782499 5.12329
lowerneck 0.927073 -12.0671 -12.3781
upperneck 4.99998 -16.7936 10.2303
head 3.24198 -8.43567 4.33216
lclavicle -3.24845e-14 3.442e-15 0
lhumerus -69.5063 -17.8002 103.907
lradius 102.035 0 0
lwrist 60.5907 0 0
lhand -11.4666 423.116 0
lfingers 7.12502 0 0
lthumb 14.571 -487.482 0
rclavicle -3.24845e-14 3.442e-15 0
rhumerus 49.1281 -9.95394 -58.5623
rradius 16.9586 0 0
rwrist 34.7403 0 0
rhand -19.6419 -402.613 0
rfingers 7.12502 0 0
rthumb 6.68555 287.513 0
2244
root -0.730268 13.8049 -16.6188 911.822 -26.5656 168.624
lfemur 11.4638 -1.43763 -15.3505
ltibia 31.8686 0 0
lfoot -23.6361 36.8034 0
ltoes -43.87 0 0
rfemur -72.292 -23.7602 9.20008
rtibia 74.1974 0 0
rfoot -6.88847 14.3707 0
rtoes 4.35078 0 0
lowerback 9.35608 1.85356 -13.1679
upperback -3.08612 0.455729 -2.021
thorax -8.79614 0.799137 5.14796
lowerneck 0.912112 -12.0776 -12.3725
upperneck 4.99067 -16.8093 10.2716
head 3.24643 -8.44246 4.34147
lclavicle -2.76337e-14 8.19807e-15 0
lhumerus -69.4996 -17.8413 103.924
lradius 102.025 0 0
lwrist 60.6229 0 0
lhand -11.4312 422.966 0
lfingers 7.12502 0 0
lthumb 14.6051 -483.949 0
rclavicle -2.76337e-14 8.19807e-15 0
rhumerus 49.1185 -9.88996 -58.6308
rradius 16.9433 0 0
rwrist 34.6953 0 0
rhand -19.6431 -402.596 0
rfingers 7.12502 0 0
rthumb 6.68435 287.53 0
2245
root -0.736306 13.796 -16.6394 911.814 -26.4152 168.657
lfemur 11.5522 -1.31742 -15.3568
ltibia 31.8375 0 0
lfoot -23.6162 36.8334 0
ltoes -44.0749 0 0
rfemur -72.418 -23.6797 9.24279
rtibia 74.2966 0 0
rfoot -6.91195 14.4141 0
rtoes 4.39525 0 0
lowerback 9.21436 1.87957 -13.2492
upperback -3.07083 0.500058 -2.03307
thorax -8.70682 0.817292 5.1729
lowerneck 0.893849 -12.0908 -12.3627
upperneck 4.97152 -16.827 10.3123
head 3.2483 -8.44993 4.34992
lclavicle -2.21968e-14 1.3204e-14 0
lhumerus -69.4917 -17.8926 103.945
lradius 102.006 0 0
lwrist 60.6762 0 0
lhand -11.409 422.748 0
lfingers 7.12502 0 0
lthumb 14.6265 -478.713 0
rclavicle -2.21968e-14 1.3204e-14 0
rhumerus 49.1135 -9.83487 -58.6882
rradius 16.9308 0 0
rwrist 34.6422 0 0
rhand -19.6467 -402.578 0
rfingers 7.12502 0 0
rthumb 6.68085 287.548 0
2246
root -0.742343 13.7872 -16.66 911.856 -26.2546 168.666
lfemur 11.6798 -1.20066 -15.3769
ltibia 31.7063 0 0
lfoot -23.5666 36.8631 0
ltoes -44.3341 0 0
rfemur -72.6098 -23.6213 9.2922
rtibia 74.4635 0 0
rfoot -6.98264 14.4643 0
rtoes 4.45964 0 0
lowerback 9.05011 1.9078 -13.3455
upperback -3.06404 0.546975 -2.05267
thorax -8.61486 0.837172 5.19751
lowerneck 0.871547 -12.1072 -12.3478
upperneck 4.94081 -16.8469 10.3518
head 3.2471 -8.45817 4.3572
lclavicle -1.61332e-14 1.84644e-14 0
lhumerus -69.482 -17.9556 103.971
lradius 101.978 0 0
lwrist 60.7536 0 0
lhand -11.4015 422.455 0
lfingers 7.12502 0 0
lthumb 14.6337 -471.603 0
rclavicle -1.61332e-14 1.84644e-14 0
rhumerus 49.1143 -9.79146 -58.7319
rradius 16.9215 0 0
rwrist 34.5803 0 0
rhand -19.6535 -402.557 0
rfingers 7.12502 0 0
rthumb 6.67433 287.568 0
2247
root -0.748381 13.7783 -16.6806 911.959 -26.0825 168.647
lfemur 11.8541 -1.08939 -15.4138
ltibia 31.4548 0 0
lfoot -23.4816 36.8927 0
ltoes -44.6563 0 0
rfemur -72.8794 -23.59 9.34976
rtibia 74.7108 0 0
rfoot -7.10971 14.523 0
rtoes 4.54873 0 0
lowerback 8.85975 1.93847 -13.4588
upperback -3.06761 0.596716 -2.08126
thorax -8.52034 0.858983 5.22117
lowerneck 0.844471 -12.1272 -12.3269
upperneck 4.89681 -16.8694 10.3895
head 3.24236 -8.46729 4.36299
lclavicle -9.40214e-15 2.39842e-14 0
lhumerus -69.4701 -18.0321 104.002
lradius 101.937 0 0
lwrist 60.858 0 0
lhand -11.4103 422.08 0
lfingers 7.12502 0 0
lthumb 14.6253 -462.45 0
rclavicle -9.40214e-15 2.39842e-14 0
rhumerus 49.1222 -9.76252 -58.7594
rradius 16.9162 0 0
rwrist 34.5088 0 0
rhand -19.6641 -402.535 0
rfingers 7.12502 0 0
rthumb 6.66406 287.59 0
2248
root -0.754418 13.7695 -16.7012 912.132 -25.8977 168.594
lfemur 12.0826 -0.985646 -15.4705
ltibia 31.0628 0 0
lfoot -23.3555 36.9225 0
ltoes -45.0499 0 0
rfemur -73.239 -23.5907 9.41696
rtibia 75.0507 0 0
rfoot -7.30228 14.5918 0
rtoes 4.66733 0 0
lowerback 8.63967 1.97181 -13.5908
upperback -3.0834 0.649518 -2.12027
thorax -8.42336 0.882932 5.24329
lowerneck 0.811883 -12.1514 -12.2993
upperneck 4.83781 -16.8947 10.4248
head 3.23359 -8.47738 4.36699
lclavicle -1.963e-15 2.9768e-14 0
lhumerus -69.4554 -18.124 104.039
lradius 101.883 0 0
lwrist 60.9924 0 0
lhand -11.4368 421.617 0
lfingers 7.12502 0 0
lthumb 14.5997 -451.083 0
rclavicle -1.963e-15 2.9768e-14 0
rhumerus 49.1383 -9.75081 -58.7681
rradius 16.9153 0 0
rwrist 34.427 0 0
rhand -19.6794 -402.511 0
rfingers 7.12502 0 0
rthumb 6.64932 287.614 0
2249
root -0.756687 13.767 -16.7058 912.332 -25.7284 168.525
lfemur 12.3068 -0.898909 -15.5347
ltibia 30.6412 0 0
lfoot -23.2222 36.9485 0
ltoes -45.445 0 0
rfemur -73.6154 -23.6121 9.48012
rtibia 75.405 0 0
rfoot -7.50804 14.6574 0
rtoes 4.78885 0 0
lowerback 8.42379 2.00184 -13.7222
upperback -3.10553 0.696459 -2.16204
thorax -8.3348 0.904662 5.26301
lowerneck 0.779787 -12.1759 -12.2711
upperneck 4.77531 -16.9197 10.456
head 3.22325 -8.48729 4.36985
lclavicle 5.51958e-15 3.52634e-14 0
lhumerus -69.4411 -18.215 104.074
lradius 101.827 0 0
lwrist 61.1315 0 0
lhand -11.4693 421.148 0
lfingers 7.12502 0 0
lthumb 14.5684 -439.114 0
rclavicle 5.51958e-15 3.52634e-14 0
rhumerus 49.1574 -9.75076 -58.7668
rradius 16.9169 0 0
rwrist 34.3471 0 0
rhand -19.6944 -402.488 0
rfingers 7.12502 0 0
rthumb 6.63483 287.636 0
